<?xml version="1.0" encoding="utf-8"?>
<!-- Generator: Adobe Illustrator 24.0.0, SVG Export Plug-In . SVG Version: 6.00 Build 0)  -->
<svg version="1.1" id="Layer_1" xmlns="http://www.w3.org/2000/svg" xmlns:xlink="http://www.w3.org/1999/xlink" x="0px" y="0px"
	 viewBox="0 0 230 50" style="enable-background:new 0 0 230 50;" xml:space="preserve">
<style type="text/css">
	.st0{fill:#003B63;}
	.st1{fill-rule:evenodd;clip-rule:evenodd;fill:#C2121F;}
</style>
<path class="st0" d="M155.75,41.7V27.08h2.3V41.7H155.75z M150.64,46.04c-0.17,0-0.37-0.08-0.59-0.24
	c-0.22-0.16-0.42-0.36-0.59-0.58c-0.17-0.22-0.26-0.43-0.26-0.61c0-0.19,0.08-0.39,0.24-0.61c0.16-0.22,0.36-0.42,0.58-0.58
	c0.22-0.16,0.43-0.24,0.61-0.24c0.19,0,0.39,0.08,0.6,0.24c0.22,0.16,0.41,0.36,0.58,0.58c0.17,0.22,0.26,0.43,0.26,0.61
	c0,0.17-0.09,0.37-0.26,0.6c-0.17,0.23-0.37,0.43-0.59,0.59C151.01,45.96,150.81,46.04,150.64,46.04z M147.05,46.04
	c-0.17,0-0.37-0.08-0.59-0.24c-0.22-0.16-0.42-0.36-0.59-0.58c-0.17-0.22-0.25-0.43-0.25-0.61c0-0.19,0.08-0.39,0.24-0.61
	c0.16-0.22,0.36-0.42,0.58-0.58c0.22-0.16,0.43-0.24,0.61-0.24c0.19,0,0.39,0.08,0.6,0.24c0.22,0.16,0.41,0.36,0.58,0.58
	c0.17,0.22,0.26,0.43,0.26,0.61c0,0.17-0.08,0.37-0.26,0.6c-0.17,0.23-0.37,0.43-0.59,0.59C147.42,45.96,147.22,46.04,147.05,46.04z
	 M145.96,41.7c-0.17,0-0.29-0.12-0.36-0.35c-0.07-0.23-0.1-0.54-0.1-0.93c0-0.39,0.04-0.7,0.1-0.94c0.07-0.24,0.19-0.36,0.36-0.36
	V41.7z M145.96,41.7v-2.58h4.43l-1.23,1.25V30.8h2.27v10.9H145.96z M145.96,41.7v-2.58c0.19,0,0.31,0.12,0.37,0.36
	c0.06,0.24,0.09,0.55,0.09,0.94c0,0.39-0.03,0.7-0.09,0.93C146.27,41.59,146.14,41.7,145.96,41.7 M135.86,39.13h4.41
	c0.39,0,0.65-0.08,0.8-0.23c0.15-0.15,0.22-0.44,0.22-0.86v-4.94H137c-0.45,0-0.75,0.08-0.9,0.24c-0.15,0.16-0.23,0.48-0.23,0.96
	V39.13z M138.6,47.97l-1.46-1.72c0.57-0.46,1.11-0.99,1.61-1.58c0.5-0.59,0.94-1.2,1.32-1.84c0.38-0.64,0.68-1.28,0.89-1.91
	c0.22-0.63,0.32-1.23,0.32-1.79h2.3c0,0.73-0.13,1.49-0.39,2.3c-0.26,0.8-0.62,1.61-1.07,2.4c-0.45,0.8-0.97,1.55-1.58,2.26
	C139.95,46.8,139.3,47.42,138.6,47.97z M137.19,41.7c-0.71,0-1.31-0.09-1.79-0.27c-0.48-0.18-0.87-0.48-1.16-0.92
	c-0.29-0.43-0.5-1.01-0.63-1.73c-0.12-0.72-0.19-1.63-0.19-2.73c0-1.07,0.09-1.96,0.26-2.68c0.17-0.72,0.45-1.29,0.84-1.71
	c0.39-0.42,0.91-0.71,1.57-0.88c0.66-0.17,1.49-0.25,2.49-0.25c1.02,0,1.91,0.06,2.67,0.17c0.76,0.12,1.54,0.31,2.34,0.59v7.82
	l-1.16,2.58H137.19z M142.66,41.7v-2.58h3.29v2.58H142.66z M121.64,41.7V27.08h2.3V41.7H121.64z M116.19,46.44
	c-0.17,0-0.37-0.08-0.59-0.24c-0.22-0.16-0.42-0.36-0.59-0.58c-0.17-0.22-0.26-0.43-0.26-0.61c0-0.19,0.08-0.39,0.24-0.61
	c0.16-0.22,0.36-0.42,0.58-0.58c0.22-0.16,0.43-0.24,0.61-0.24c0.19,0,0.39,0.08,0.6,0.24c0.22,0.16,0.41,0.36,0.58,0.58
	c0.17,0.22,0.26,0.43,0.26,0.61c0,0.17-0.09,0.37-0.26,0.6c-0.17,0.23-0.37,0.43-0.59,0.59C116.56,46.35,116.36,46.44,116.19,46.44z
	 M111.85,41.7c-0.17,0-0.29-0.12-0.36-0.35c-0.07-0.23-0.1-0.54-0.1-0.93c0-0.39,0.03-0.7,0.1-0.94c0.07-0.24,0.19-0.36,0.36-0.36
	V41.7z M111.85,41.7v-2.58h4.43l-1.23,1.25V30.8h2.27v10.9H111.85z M110.37,28.04c-0.17,0-0.37-0.08-0.59-0.24
	c-0.22-0.16-0.42-0.36-0.59-0.58c-0.17-0.22-0.26-0.43-0.26-0.61c0-0.19,0.08-0.39,0.24-0.61c0.16-0.22,0.36-0.42,0.58-0.58
	c0.22-0.16,0.43-0.24,0.62-0.24c0.19,0,0.39,0.08,0.6,0.24c0.22,0.16,0.41,0.36,0.58,0.58c0.17,0.22,0.25,0.43,0.25,0.61
	c0,0.17-0.08,0.37-0.25,0.6c-0.17,0.23-0.37,0.43-0.59,0.59C110.73,27.96,110.54,28.04,110.37,28.04z M106.77,28.04
	c-0.17,0-0.37-0.08-0.59-0.24c-0.22-0.16-0.42-0.36-0.59-0.58c-0.17-0.22-0.26-0.43-0.26-0.61c0-0.19,0.08-0.39,0.24-0.61
	c0.16-0.22,0.36-0.42,0.58-0.58c0.22-0.16,0.43-0.24,0.61-0.24c0.19,0,0.39,0.08,0.6,0.24c0.22,0.16,0.41,0.36,0.58,0.58
	c0.17,0.22,0.26,0.43,0.26,0.61c0,0.17-0.09,0.37-0.26,0.6c-0.17,0.23-0.37,0.43-0.59,0.59C107.14,27.96,106.94,28.04,106.77,28.04z
	 M111.85,41.7v-2.58c0.17,0,0.29,0.12,0.36,0.36c0.07,0.24,0.1,0.55,0.1,0.94c0,0.39-0.04,0.7-0.1,0.93
	C112.14,41.59,112.02,41.7,111.85,41.7z M104.22,41.7c-0.17,0-0.29-0.12-0.36-0.35c-0.07-0.23-0.1-0.54-0.1-0.93
	c0-0.39,0.04-0.7,0.1-0.94c0.07-0.24,0.19-0.36,0.36-0.36V41.7z M104.22,41.7v-2.58h4.43l-1.23,1.25V30.8h2.27v10.9H104.22z
	 M109.69,41.7v-2.58h2.16v2.58H109.69z M104.22,41.7v-2.58c0.17,0,0.29,0.12,0.36,0.36c0.07,0.24,0.1,0.55,0.1,0.94
	c0,0.39-0.03,0.7-0.1,0.93C104.51,41.59,104.39,41.7,104.22,41.7z M87.79,41.7c-0.17,0-0.29-0.12-0.36-0.35
	c-0.07-0.23-0.1-0.54-0.1-0.93c0-0.39,0.04-0.7,0.1-0.94c0.07-0.24,0.19-0.36,0.36-0.36V41.7z M87.79,41.7v-2.58h11.97V34.6h-7.66
	c-0.76,0-1.34-0.19-1.74-0.56c-0.4-0.37-0.6-0.91-0.6-1.62c0-0.54,0.09-1.14,0.28-1.79c0.19-0.65,0.44-1.31,0.77-1.98
	c0.32-0.67,0.7-1.32,1.11-1.94c0.42-0.62,0.87-1.17,1.35-1.65l1.9,1.02c-0.4,0.4-0.78,0.85-1.14,1.36c-0.36,0.5-0.68,1.02-0.99,1.54
	c-0.3,0.53-0.55,1.05-0.75,1.57c-0.2,0.52-0.34,1.02-0.42,1.5h7.15c0.79,0,1.4,0.09,1.83,0.27c0.43,0.18,0.74,0.49,0.93,0.93
	c0.19,0.44,0.28,1.05,0.28,1.82v6.64H87.79z M102.06,41.7v-2.58h2.16v2.58H102.06z M87.79,41.7v-2.58c0.17,0,0.29,0.12,0.36,0.36
	c0.07,0.24,0.1,0.55,0.1,0.94c0,0.39-0.03,0.7-0.1,0.93C88.08,41.59,87.96,41.7,87.79,41.7z M80.99,41.7
	c-1.04,0-1.88-0.07-2.53-0.21c-0.65-0.14-1.15-0.38-1.5-0.73c-0.35-0.35-0.59-0.83-0.72-1.45c-0.13-0.62-0.2-1.41-0.2-2.37v-4.06
	h2.27v5.01c0,0.51,0.14,0.84,0.43,1c0.29,0.15,0.74,0.23,1.36,0.23h2.97c0.09-0.46,0.16-0.97,0.2-1.51
	c0.04-0.54,0.06-1.16,0.06-1.86c0-0.71-0.05-1.45-0.16-2.22c-0.11-0.77-0.26-1.55-0.44-2.35l2.25-0.35
	c0.12,0.42,0.24,0.91,0.34,1.46c0.1,0.56,0.18,1.13,0.23,1.72c0.05,0.59,0.08,1.13,0.08,1.62c0,1.56-0.14,2.78-0.43,3.65
	c-0.29,0.87-0.77,1.49-1.44,1.86C83.09,41.52,82.17,41.7,80.99,41.7z M71.02,41.7v-2.58h3.23c0.63,0,1.09-0.08,1.38-0.23
	c0.29-0.15,0.43-0.49,0.43-1v-5.01h2.27v4.06c0,0.96-0.07,1.75-0.2,2.37c-0.13,0.62-0.37,1.1-0.73,1.45
	c-0.36,0.35-0.87,0.59-1.54,0.73c-0.67,0.14-1.55,0.21-2.63,0.21H71.02z M64.87,47.27c-1.21,0-2.18-0.08-2.92-0.23
	c-0.74-0.15-1.3-0.43-1.68-0.82c-0.38-0.39-0.63-0.94-0.77-1.62c-0.13-0.69-0.2-1.57-0.2-2.66c0-0.57,0.02-1.16,0.07-1.75
	c0.05-0.6,0.12-1.18,0.22-1.75c0.1-0.57,0.22-1.08,0.36-1.53l2.27,0.35c-0.19,0.76-0.34,1.49-0.46,2.2
	c-0.12,0.71-0.19,1.38-0.19,2.02c0,0.68,0.02,1.27,0.06,1.78c0.04,0.5,0.11,0.99,0.22,1.45h3.97c1.07,0,1.82-0.08,2.26-0.23
	c0.44-0.15,0.66-0.49,0.66-1V32.89h2.27v9.42c0,0.99-0.08,1.81-0.24,2.46c-0.16,0.65-0.46,1.16-0.89,1.52
	c-0.43,0.36-1.05,0.62-1.86,0.77C67.22,47.2,66.17,47.27,64.87,47.27z M80.99,41.7l2.99-2.58h3.81v2.58H80.99z"/>
<path class="st0" d="M204.12,20.62c0.34,0.26,0.72,0.5,1.13,0.71c0.41,0.22,0.87,0.39,1.36,0.53c0.49,0.13,1.03,0.2,1.62,0.2
	c0.95-0.01,1.77-0.12,2.47-0.34c0.7-0.22,1.28-0.51,1.75-0.88c0.47-0.37,0.84-0.77,1.09-1.21c0.26-0.44,0.43-0.88,0.5-1.32
	c0.08-0.49,0.05-0.91-0.09-1.28c-0.14-0.36-0.35-0.68-0.64-0.94c-0.29-0.27-0.63-0.49-1.02-0.68c-0.39-0.19-0.79-0.36-1.22-0.5
	c-0.42-0.14-0.84-0.28-1.23-0.4c-0.4-0.12-0.76-0.24-1.08-0.37c-0.31-0.12-0.56-0.26-0.73-0.42c-0.17-0.15-0.25-0.33-0.22-0.54
	c0.04-0.19,0.15-0.35,0.33-0.48c0.19-0.14,0.43-0.24,0.73-0.31c0.3-0.07,0.63-0.11,1-0.11c0.3,0,0.58,0.03,0.83,0.09
	c0.26,0.05,0.51,0.14,0.75,0.24c0.19,0.09,0.32,0.22,0.41,0.41c0.08,0.18,0.1,0.39,0.06,0.61c-0.03,0.19,0.01,0.34,0.11,0.46
	c0.11,0.12,0.26,0.18,0.44,0.19h1.37c0.19,0,0.36-0.07,0.51-0.19c0.15-0.12,0.24-0.27,0.28-0.46l0.26-1.41
	c0.05-0.24,0.03-0.45-0.04-0.65c-0.07-0.2-0.2-0.36-0.38-0.49c-0.45-0.33-0.89-0.6-1.32-0.8c-0.43-0.2-0.87-0.34-1.32-0.44
	c-0.46-0.09-0.95-0.13-1.49-0.13c-0.78,0-1.48,0.1-2.1,0.29c-0.62,0.19-1.16,0.45-1.62,0.77c-0.46,0.33-0.82,0.71-1.1,1.13
	c-0.27,0.43-0.46,0.88-0.54,1.36c-0.08,0.5-0.05,0.94,0.08,1.31c0.14,0.37,0.36,0.69,0.65,0.96c0.3,0.27,0.64,0.5,1.04,0.69
	c0.39,0.19,0.81,0.35,1.24,0.49c0.43,0.14,0.85,0.26,1.26,0.37c0.41,0.11,0.77,0.21,1.1,0.32c0.32,0.1,0.58,0.22,0.76,0.35
	c0.18,0.12,0.26,0.27,0.24,0.44c-0.05,0.28-0.2,0.52-0.44,0.73c-0.24,0.21-0.55,0.36-0.9,0.47c-0.36,0.11-0.75,0.17-1.16,0.17
	c-0.37,0-0.69-0.03-0.97-0.09c-0.28-0.05-0.52-0.14-0.73-0.24c-0.19-0.1-0.32-0.23-0.41-0.4c-0.09-0.17-0.11-0.37-0.08-0.6v-0.05
	c0.03-0.19-0.01-0.34-0.11-0.46c-0.11-0.12-0.25-0.18-0.44-0.19h-1.37c-0.19,0-0.36,0.07-0.51,0.19c-0.15,0.12-0.24,0.27-0.28,0.46
	l-0.23,1.35c-0.03,0.22-0.02,0.43,0.05,0.63C203.84,20.32,203.95,20.49,204.12,20.62 M197.36,21.99h0.09
	c0.37-0.01,0.76-0.06,1.18-0.15c0.42-0.1,0.83-0.23,1.24-0.4c0.41-0.17,0.8-0.37,1.16-0.61c0.36-0.24,0.68-0.51,0.94-0.8
	c0.1-0.12,0.17-0.25,0.19-0.38c0.03-0.14,0.02-0.26-0.03-0.38l-0.3-0.7c-0.05-0.1-0.12-0.19-0.2-0.24
	c-0.09-0.05-0.19-0.08-0.31-0.08c-0.07,0-0.14,0.01-0.22,0.03c-0.08,0.02-0.15,0.06-0.22,0.1c-0.45,0.3-0.92,0.51-1.41,0.64
	c-0.49,0.13-1,0.19-1.54,0.2h-0.09c-0.44,0-0.84-0.07-1.19-0.22c-0.35-0.15-0.64-0.36-0.87-0.64c-0.26-0.31-0.42-0.68-0.49-1.12
	c-0.07-0.44-0.06-0.93,0.03-1.47c0.12-0.66,0.34-1.25,0.67-1.76c0.33-0.51,0.75-0.92,1.28-1.23c0.52-0.3,1.13-0.45,1.81-0.46
	c0.15,0,0.3,0.01,0.44,0.03c0.15,0.02,0.29,0.05,0.41,0.08c0.14,0.04,0.25,0.12,0.32,0.24c0.07,0.12,0.1,0.25,0.08,0.41l-0.28,1.61
	c-0.03,0.19,0.01,0.35,0.11,0.48c0.11,0.13,0.25,0.19,0.44,0.2h1.35c0.19-0.01,0.36-0.07,0.52-0.2c0.15-0.12,0.25-0.29,0.29-0.48
	l0.53-3.09c0.02-0.17,0.01-0.32-0.03-0.46c-0.05-0.14-0.12-0.26-0.22-0.35c-0.45-0.4-0.97-0.7-1.55-0.92
	c-0.58-0.22-1.22-0.33-1.93-0.33c-0.82,0-1.62,0.15-2.39,0.44c-0.77,0.29-1.47,0.7-2.1,1.25c-0.64,0.55-1.18,1.2-1.62,1.96
	c-0.44,0.77-0.75,1.63-0.92,2.58c-0.16,0.95-0.16,1.82,0.01,2.58c0.17,0.77,0.48,1.42,0.92,1.96c0.45,0.54,1,0.95,1.66,1.25
	C195.8,21.84,196.54,21.98,197.36,21.99z M189.1,8.2c0.36,0,0.7-0.09,1.02-0.27c0.32-0.18,0.6-0.41,0.82-0.7
	c0.22-0.29,0.37-0.62,0.43-0.98c0.06-0.36,0.03-0.69-0.1-0.98c-0.12-0.29-0.31-0.53-0.57-0.7c-0.26-0.17-0.57-0.26-0.93-0.27
	c-0.36,0-0.7,0.09-1.03,0.27c-0.32,0.17-0.6,0.41-0.83,0.7c-0.23,0.29-0.37,0.62-0.44,0.98c-0.06,0.36-0.02,0.68,0.1,0.98
	c0.13,0.29,0.32,0.53,0.59,0.7C188.43,8.11,188.74,8.2,189.1,8.2z M186.09,11.96h0.46c0.14,0,0.26,0.05,0.34,0.15
	c0.08,0.1,0.12,0.22,0.1,0.36l-1.07,6.01c-0.1,0.6-0.11,1.13-0.04,1.57c0.08,0.44,0.23,0.8,0.45,1.09c0.22,0.29,0.48,0.5,0.8,0.64
	c0.32,0.14,0.66,0.21,1.04,0.21c0.64,0,1.21-0.2,1.7-0.59c0.49-0.39,0.91-0.98,1.25-1.76c0.03-0.09,0.04-0.16,0.02-0.23
	c-0.02-0.07-0.07-0.12-0.14-0.16l-0.56-0.28c-0.02-0.01-0.05-0.02-0.07-0.02c-0.02,0-0.05,0-0.07,0c-0.06,0-0.12,0.02-0.18,0.05
	c-0.06,0.03-0.12,0.08-0.17,0.14c-0.14,0.17-0.26,0.29-0.38,0.35c-0.11,0.06-0.23,0.09-0.34,0.09c-0.22-0.01-0.38-0.07-0.47-0.19
	c-0.09-0.12-0.14-0.27-0.15-0.44c-0.01-0.17,0-0.32,0.02-0.46l1.42-8.05c0.03-0.19-0.01-0.36-0.11-0.49
	c-0.11-0.13-0.25-0.2-0.44-0.21h-3.02c-0.19,0-0.36,0.07-0.52,0.21c-0.16,0.13-0.25,0.29-0.29,0.49l-0.16,0.86
	c-0.03,0.19,0.01,0.35,0.12,0.48C185.74,11.89,185.9,11.96,186.09,11.96z M177.23,12.17h0.42c0.14,0,0.25,0.05,0.33,0.15
	c0.08,0.1,0.1,0.22,0.09,0.36l-0.81,4.57c-0.12,0.7-0.17,1.35-0.15,1.93c0.03,0.58,0.14,1.08,0.36,1.5
	c0.21,0.42,0.54,0.75,0.98,0.98c0.44,0.23,1.01,0.34,1.72,0.35c0.6,0,1.15-0.1,1.63-0.3c0.49-0.19,0.91-0.45,1.27-0.77
	c0.1-0.09,0.17-0.19,0.22-0.3c0.05-0.11,0.07-0.22,0.06-0.33c0-0.11-0.04-0.21-0.1-0.3l-0.56-0.77c-0.05-0.07-0.11-0.12-0.19-0.15
	c-0.08-0.03-0.16-0.05-0.25-0.05c-0.08,0-0.16,0.01-0.24,0.04c-0.08,0.02-0.15,0.06-0.22,0.1c-0.13,0.08-0.27,0.15-0.42,0.21
	c-0.15,0.06-0.31,0.08-0.49,0.09c-0.34,0-0.59-0.08-0.75-0.23c-0.16-0.15-0.25-0.38-0.27-0.68c-0.02-0.31,0.01-0.68,0.09-1.13
	l0.84-4.76c0.03-0.14,0.1-0.26,0.21-0.36c0.12-0.1,0.25-0.15,0.39-0.15h1.69c0.19,0,0.36-0.07,0.51-0.2
	c0.15-0.13,0.24-0.29,0.28-0.48l0.19-1.07c0.03-0.19-0.01-0.35-0.11-0.48c-0.11-0.13-0.26-0.19-0.44-0.2h-1.69
	c-0.14,0-0.25-0.05-0.33-0.15c-0.08-0.1-0.1-0.22-0.08-0.36l0.28-1.53c0.02-0.15-0.02-0.27-0.1-0.37c-0.09-0.09-0.2-0.14-0.34-0.14
	c-0.02,0-0.05,0-0.07,0c-0.02,0-0.05,0.01-0.09,0.02l-1.79,0.58c-0.12,0.04-0.21,0.1-0.29,0.19c-0.08,0.09-0.13,0.19-0.15,0.3
	l-0.16,0.95c-0.03,0.14-0.1,0.26-0.21,0.36c-0.12,0.1-0.25,0.15-0.39,0.15h-0.42c-0.19,0-0.36,0.07-0.49,0.2
	c-0.14,0.13-0.23,0.29-0.27,0.48l-0.21,1.07c-0.03,0.19,0.01,0.35,0.11,0.48C176.89,12.1,177.04,12.17,177.23,12.17z M165.79,15.74
	c0.12-0.66,0.34-1.24,0.67-1.76c0.33-0.52,0.75-0.92,1.28-1.22c0.52-0.3,1.13-0.45,1.81-0.46c0.44,0,0.84,0.07,1.19,0.22
	c0.35,0.15,0.64,0.36,0.87,0.64c0.26,0.31,0.42,0.68,0.49,1.11c0.07,0.44,0.06,0.92-0.03,1.46c-0.12,0.66-0.34,1.24-0.67,1.76
	c-0.33,0.51-0.75,0.92-1.28,1.22c-0.52,0.3-1.12,0.45-1.81,0.46c-0.44,0-0.84-0.07-1.19-0.22c-0.35-0.15-0.64-0.36-0.88-0.64
	c-0.25-0.31-0.42-0.68-0.49-1.11C165.68,16.77,165.69,16.28,165.79,15.74z M160.06,27.21h4.69c0.19,0,0.37-0.07,0.52-0.2
	c0.15-0.13,0.26-0.29,0.29-0.48l0.14-0.88c0.03-0.19-0.01-0.35-0.11-0.48c-0.1-0.13-0.25-0.19-0.44-0.2h-0.46
	c-0.14,0-0.26-0.05-0.34-0.15c-0.08-0.1-0.12-0.22-0.1-0.36l0.44-2.51c0.04-0.2,0.14-0.37,0.29-0.49c0.15-0.13,0.33-0.2,0.52-0.2
	c0.06,0,0.12,0.01,0.17,0.02c0.06,0.02,0.11,0.04,0.15,0.07c0.29,0.21,0.63,0.36,1.02,0.46c0.39,0.1,0.82,0.15,1.3,0.15
	c0.82,0,1.6-0.15,2.34-0.44c0.74-0.29,1.4-0.7,2-1.25c0.6-0.54,1.11-1.2,1.52-1.96c0.41-0.76,0.7-1.62,0.87-2.58
	c0.17-0.96,0.18-1.81,0.04-2.58c-0.14-0.77-0.41-1.42-0.82-1.96c-0.41-0.54-0.93-0.96-1.56-1.25c-0.63-0.29-1.36-0.43-2.18-0.44
	c-0.61,0-1.18,0.08-1.7,0.25c-0.51,0.17-0.99,0.4-1.43,0.7c-0.06,0.05-0.12,0.08-0.19,0.09c-0.07,0.02-0.13,0.02-0.19,0.02
	c-0.12,0-0.22-0.04-0.31-0.12c-0.08-0.08-0.12-0.19-0.11-0.33c0-0.13-0.04-0.24-0.12-0.32c-0.08-0.08-0.19-0.12-0.32-0.12h-2.83
	c-0.19,0-0.36,0.07-0.52,0.2c-0.15,0.13-0.25,0.29-0.29,0.48l-0.16,0.88c-0.03,0.19,0.01,0.35,0.12,0.48
	c0.12,0.13,0.27,0.19,0.46,0.2h0.46c0.14,0,0.26,0.05,0.34,0.15c0.09,0.1,0.12,0.22,0.1,0.36l-2.13,12.02
	c-0.03,0.14-0.1,0.26-0.21,0.36c-0.12,0.1-0.25,0.15-0.39,0.15h-0.46c-0.19,0-0.36,0.07-0.52,0.2c-0.15,0.13-0.25,0.29-0.29,0.48
	l-0.16,0.88c-0.03,0.19,0.01,0.35,0.12,0.48C159.72,27.14,159.87,27.2,160.06,27.21z M146.46,13.05c0.15-0.85,0.42-1.64,0.8-2.37
	c0.38-0.73,0.85-1.37,1.43-1.92c0.58-0.55,1.24-0.97,1.99-1.28c0.75-0.31,1.57-0.46,2.47-0.46c0.78,0,1.49,0.13,2.12,0.39
	c0.63,0.26,1.16,0.65,1.57,1.16c0.44,0.55,0.74,1.2,0.89,1.96c0.15,0.76,0.15,1.6-0.01,2.52c-0.15,0.85-0.42,1.63-0.8,2.36
	c-0.38,0.73-0.86,1.36-1.44,1.91c-0.58,0.55-1.25,0.98-1.99,1.29c-0.75,0.31-1.56,0.46-2.45,0.47c-0.52,0-1.01-0.06-1.47-0.18
	c-0.46-0.12-0.88-0.29-1.26-0.52c-0.38-0.23-0.7-0.52-0.98-0.86c-0.44-0.55-0.74-1.2-0.88-1.96
	C146.29,14.81,146.3,13.97,146.46,13.05z M150.52,21.99c0.95,0,1.87-0.14,2.76-0.41c0.9-0.27,1.74-0.66,2.54-1.17
	c0.8-0.51,1.52-1.13,2.16-1.86c0.65-0.73,1.19-1.55,1.64-2.47c0.45-0.92,0.77-1.93,0.97-3.02c0.19-1.09,0.23-2.1,0.1-3.02
	c-0.12-0.92-0.37-1.75-0.77-2.47c-0.39-0.73-0.9-1.35-1.52-1.86c-0.62-0.51-1.33-0.9-2.13-1.17c-0.8-0.27-1.68-0.41-2.63-0.41
	c-0.95,0-1.87,0.14-2.76,0.41c-0.9,0.27-1.74,0.66-2.54,1.17c-0.8,0.51-1.52,1.13-2.17,1.86c-0.65,0.73-1.2,1.55-1.65,2.47
	c-0.45,0.92-0.77,1.93-0.97,3.02c-0.19,1.09-0.22,2.1-0.1,3.02c0.12,0.92,0.38,1.75,0.77,2.47c0.39,0.73,0.9,1.35,1.52,1.86
	c0.62,0.51,1.33,0.9,2.14,1.17C148.7,21.85,149.58,21.98,150.52,21.99z M120.17,15.73c0.08-0.48,0.23-0.93,0.44-1.35
	c0.21-0.41,0.48-0.77,0.8-1.09c0.32-0.31,0.7-0.55,1.12-0.73c0.43-0.17,0.89-0.26,1.4-0.26c0.44,0,0.84,0.07,1.2,0.22
	c0.36,0.14,0.65,0.36,0.89,0.63c0.26,0.31,0.42,0.67,0.49,1.11c0.07,0.44,0.06,0.92-0.03,1.46c-0.08,0.48-0.23,0.93-0.44,1.35
	c-0.21,0.41-0.48,0.77-0.8,1.09c-0.32,0.31-0.7,0.55-1.12,0.73c-0.43,0.17-0.89,0.26-1.4,0.26c-0.44,0-0.84-0.07-1.19-0.22
	c-0.35-0.14-0.64-0.36-0.88-0.63c-0.26-0.31-0.43-0.67-0.51-1.11C120.07,16.75,120.08,16.27,120.17,15.73z M121.94,21.94
	c0.67,0,1.28-0.1,1.84-0.29c0.55-0.19,1.05-0.48,1.5-0.85c0.08-0.06,0.16-0.1,0.24-0.13c0.08-0.04,0.16-0.05,0.24-0.05
	c0.11,0,0.21,0.02,0.3,0.07c0.09,0.05,0.17,0.12,0.21,0.21c0.13,0.25,0.29,0.45,0.49,0.6c0.2,0.15,0.43,0.27,0.69,0.34
	c0.25,0.07,0.51,0.1,0.79,0.1c0.64,0,1.21-0.2,1.71-0.6c0.5-0.4,0.92-0.99,1.26-1.77c0.03-0.08,0.05-0.16,0.03-0.23
	c-0.01-0.07-0.05-0.12-0.12-0.16l-0.42-0.23c-0.02-0.01-0.05-0.02-0.07-0.03c-0.02-0.01-0.05-0.02-0.07-0.02
	c-0.07,0-0.14,0.02-0.2,0.05c-0.06,0.03-0.11,0.08-0.15,0.13c-0.09,0.13-0.19,0.23-0.3,0.29c-0.11,0.06-0.22,0.1-0.32,0.12
	c-0.11,0.02-0.2,0.03-0.28,0.03c-0.22-0.01-0.38-0.07-0.47-0.19c-0.09-0.12-0.14-0.27-0.15-0.44c-0.01-0.17,0-0.32,0.02-0.46
	l1.44-8.03c0.03-0.19-0.01-0.36-0.12-0.49c-0.11-0.13-0.27-0.2-0.46-0.21h-1.14c-0.13,0-0.25,0.05-0.36,0.14
	c-0.11,0.09-0.19,0.2-0.24,0.33c-0.05,0.14-0.13,0.25-0.24,0.32c-0.11,0.08-0.23,0.12-0.36,0.12c-0.06,0-0.11-0.01-0.16-0.03
	c-0.05-0.02-0.1-0.05-0.14-0.09c-0.36-0.29-0.76-0.52-1.21-0.7c-0.46-0.18-0.99-0.27-1.6-0.28c-0.82,0-1.6,0.15-2.33,0.44
	c-0.73,0.29-1.4,0.7-2,1.25c-0.6,0.54-1.1,1.19-1.51,1.95c-0.41,0.76-0.7,1.62-0.87,2.57c-0.17,0.95-0.18,1.81-0.04,2.57
	c0.14,0.76,0.41,1.41,0.82,1.95c0.41,0.54,0.92,0.96,1.56,1.25C120.39,21.79,121.12,21.94,121.94,21.94z M99.71,11.96h0.46
	c0.14,0,0.26,0.05,0.34,0.15c0.08,0.1,0.12,0.22,0.1,0.36l-0.93,5.27c-0.15,0.93-0.12,1.71,0.1,2.34c0.22,0.63,0.6,1.1,1.12,1.42
	c0.53,0.32,1.17,0.48,1.94,0.48c0.34,0,0.69-0.05,1.07-0.15c0.37-0.1,0.75-0.25,1.14-0.46c0.38-0.21,0.75-0.48,1.11-0.81
	c0.08-0.08,0.17-0.14,0.27-0.18c0.1-0.04,0.19-0.05,0.29-0.05c0.11,0,0.2,0.02,0.3,0.07c0.09,0.05,0.16,0.12,0.21,0.21
	c0.22,0.43,0.53,0.77,0.95,1.01c0.41,0.24,0.92,0.36,1.54,0.36c0.77-0.01,1.49-0.19,2.16-0.56c0.67-0.37,1.26-0.88,1.79-1.53
	c0.53-0.65,0.97-1.42,1.34-2.28c0.36-0.87,0.64-1.81,0.81-2.82c0.06-0.33,0.1-0.7,0.14-1.09c0.03-0.39,0.05-0.8,0.05-1.21
	c0.01-0.41,0-0.82-0.04-1.21c-0.03-0.39-0.07-0.76-0.13-1.1c-0.03-0.13-0.09-0.24-0.19-0.32c-0.1-0.08-0.22-0.12-0.37-0.12h-1.25
	c-0.16,0-0.3,0.05-0.43,0.14c-0.13,0.09-0.23,0.21-0.3,0.35c-0.07,0.14-0.1,0.29-0.08,0.44c0.08,0.55,0.12,1.14,0.12,1.78
	c0,0.63-0.05,1.28-0.14,1.93c-0.09,0.65-0.23,1.28-0.4,1.88c-0.17,0.6-0.39,1.13-0.65,1.6c-0.26,0.47-0.55,0.84-0.88,1.12
	c-0.33,0.27-0.7,0.42-1.11,0.42c-0.29,0-0.53-0.07-0.72-0.22c-0.2-0.15-0.34-0.39-0.44-0.74c-0.09-0.34-0.13-0.81-0.1-1.4
	c0.02-0.59,0.11-1.33,0.27-2.21l0.77-4.39c0.03-0.19-0.01-0.36-0.11-0.49c-0.1-0.13-0.26-0.2-0.44-0.21h-1.35
	c-0.19,0-0.36,0.07-0.52,0.21c-0.15,0.13-0.25,0.29-0.29,0.49l-0.77,4.32c-0.15,0.89-0.32,1.62-0.5,2.22
	c-0.18,0.6-0.38,1.08-0.61,1.43c-0.22,0.36-0.48,0.61-0.76,0.77c-0.28,0.15-0.6,0.23-0.96,0.22c-0.3,0-0.55-0.08-0.74-0.24
	c-0.2-0.16-0.33-0.41-0.4-0.73c-0.07-0.33-0.06-0.75,0.03-1.26l1.18-6.73c0.03-0.19-0.01-0.36-0.11-0.49
	c-0.11-0.13-0.25-0.2-0.44-0.21h-3.02c-0.19,0-0.36,0.07-0.52,0.21c-0.16,0.13-0.25,0.29-0.29,0.49l-0.16,0.86
	c-0.03,0.19,0.01,0.35,0.12,0.48C99.37,11.89,99.52,11.96,99.71,11.96z M89.99,13.63c0.24-0.32,0.51-0.58,0.8-0.77
	c0.29-0.19,0.6-0.33,0.91-0.42c0.31-0.09,0.61-0.13,0.91-0.13c0.45,0,0.82,0.07,1.11,0.2c0.29,0.13,0.51,0.3,0.67,0.51
	c0.15,0.21,0.25,0.44,0.29,0.7c0.02,0.1,0,0.2-0.06,0.3c-0.05,0.1-0.12,0.17-0.22,0.24c-0.09,0.06-0.19,0.09-0.31,0.1h-3.83
	c-0.12,0-0.22-0.04-0.29-0.12c-0.07-0.07-0.11-0.17-0.11-0.28C89.86,13.85,89.9,13.74,89.99,13.63z M91.17,21.99h0.09
	c0.47,0,0.94-0.05,1.42-0.15c0.47-0.1,0.94-0.24,1.38-0.43c0.45-0.18,0.86-0.39,1.24-0.63c0.38-0.24,0.71-0.5,0.99-0.78
	c0.1-0.11,0.16-0.23,0.18-0.36c0.02-0.13,0-0.26-0.04-0.38l-0.28-0.63c-0.06-0.13-0.14-0.22-0.25-0.29c-0.1-0.06-0.21-0.1-0.33-0.11
	c-0.06,0-0.12,0.01-0.19,0.03c-0.07,0.02-0.13,0.05-0.19,0.09c-0.49,0.29-1.02,0.51-1.59,0.65c-0.57,0.14-1.2,0.21-1.87,0.21h-0.09
	c-0.65,0-1.2-0.15-1.64-0.46c-0.44-0.31-0.73-0.78-0.89-1.42c-0.02-0.11-0.01-0.22,0.03-0.32c0.05-0.1,0.12-0.19,0.21-0.25
	c0.09-0.07,0.2-0.1,0.31-0.1h6.08c0.2,0,0.4-0.05,0.58-0.13c0.19-0.09,0.34-0.21,0.48-0.37c0.14-0.16,0.23-0.34,0.29-0.54
	c0.25-0.95,0.32-1.8,0.21-2.54c-0.1-0.75-0.35-1.39-0.74-1.91c-0.39-0.53-0.89-0.92-1.49-1.2c-0.6-0.27-1.28-0.41-2.02-0.42
	c-0.82,0-1.6,0.15-2.34,0.44c-0.74,0.29-1.4,0.7-2,1.25c-0.6,0.54-1.1,1.2-1.52,1.96c-0.41,0.77-0.7,1.63-0.87,2.59
	c-0.16,0.96-0.16,1.81,0.01,2.58c0.17,0.77,0.48,1.42,0.92,1.96c0.44,0.54,1,0.96,1.66,1.25C89.61,21.84,90.35,21.98,91.17,21.99z
	 M72.36,24.72c0.17,0.34,0.39,0.66,0.65,0.98c0.27,0.32,0.58,0.61,0.95,0.87c0.37,0.26,0.78,0.47,1.26,0.62
	c0.47,0.15,0.99,0.24,1.57,0.24c0.99-0.01,1.88-0.16,2.66-0.45c0.78-0.29,1.45-0.7,2.01-1.2c0.56-0.51,1-1.09,1.33-1.74
	c0.33-0.65,0.53-1.33,0.62-2.04l2.02-11.55c0.03-0.19-0.01-0.36-0.11-0.49c-0.11-0.13-0.26-0.2-0.44-0.21h-3.02
	c-0.19,0-0.36,0.07-0.52,0.21c-0.15,0.13-0.25,0.29-0.29,0.49l-0.14,0.86c-0.03,0.19,0.01,0.35,0.11,0.48
	c0.11,0.13,0.26,0.19,0.44,0.2h0.49c0.14,0,0.25,0.05,0.33,0.15c0.08,0.1,0.1,0.22,0.08,0.36l-0.42,2.41
	c-0.19,1.06-0.45,1.91-0.78,2.56c-0.33,0.65-0.72,1.12-1.17,1.42c-0.44,0.3-0.93,0.44-1.46,0.44c-0.3,0-0.56-0.08-0.79-0.23
	c-0.23-0.15-0.4-0.38-0.5-0.68c-0.1-0.31-0.12-0.68-0.05-1.13l1.21-6.82c0.03-0.19-0.01-0.36-0.11-0.49
	c-0.11-0.13-0.26-0.2-0.44-0.21h-3.04c-0.19,0-0.36,0.07-0.51,0.21c-0.15,0.13-0.24,0.29-0.28,0.49l-0.16,0.86
	c-0.03,0.19,0.01,0.35,0.12,0.48c0.11,0.13,0.27,0.19,0.46,0.2h0.46c0.14,0,0.25,0.05,0.33,0.15c0.08,0.1,0.1,0.22,0.08,0.36
	l-0.88,5.01c-0.12,0.7-0.12,1.3,0,1.81c0.12,0.51,0.32,0.93,0.6,1.26c0.29,0.33,0.63,0.58,1.02,0.73c0.4,0.16,0.82,0.24,1.28,0.24
	c0.52,0,0.99-0.04,1.42-0.12c0.43-0.08,0.82-0.22,1.18-0.41c0.06-0.03,0.12-0.06,0.17-0.07c0.06-0.01,0.12-0.02,0.17-0.02
	c0.15,0,0.28,0.05,0.37,0.16c0.09,0.1,0.13,0.25,0.11,0.44l-0.07,0.49c-0.1,0.71-0.32,1.28-0.65,1.7c-0.33,0.43-0.74,0.73-1.24,0.92
	c-0.49,0.19-1.05,0.28-1.67,0.28c-0.34,0-0.65-0.05-0.93-0.15c-0.28-0.1-0.53-0.23-0.74-0.39c-0.22-0.16-0.4-0.34-0.55-0.53
	c-0.16-0.19-0.28-0.37-0.37-0.55c-0.05-0.09-0.12-0.16-0.2-0.21c-0.09-0.05-0.18-0.07-0.29-0.07c-0.07,0-0.14,0.01-0.22,0.03
	c-0.08,0.02-0.15,0.06-0.22,0.1l-0.93,0.63c-0.17,0.12-0.29,0.27-0.35,0.45C72.27,24.4,72.28,24.56,72.36,24.72z M59.04,21.78h11.02
	c0.19,0,0.36-0.07,0.51-0.2c0.15-0.13,0.24-0.29,0.28-0.48l0.67-3.71c0.03-0.19-0.01-0.35-0.12-0.48c-0.11-0.13-0.27-0.19-0.46-0.2
	h-0.97c-0.19,0-0.36,0.07-0.52,0.2c-0.15,0.13-0.25,0.29-0.29,0.48l-0.32,1.93h-4.8c-0.19,0-0.34-0.07-0.46-0.2
	c-0.11-0.13-0.15-0.29-0.12-0.48l0.72-3.99c0.04-0.19,0.14-0.35,0.28-0.48c0.15-0.13,0.31-0.19,0.49-0.2h3.5
	c0.19-0.01,0.36-0.08,0.51-0.21c0.15-0.14,0.24-0.3,0.28-0.49l0.19-1.09c0.03-0.19-0.01-0.36-0.11-0.49
	c-0.1-0.14-0.25-0.21-0.43-0.21h-3.5c-0.19,0-0.34-0.07-0.44-0.19c-0.1-0.12-0.14-0.27-0.11-0.46l0.58-3.34
	c0.04-0.19,0.14-0.34,0.29-0.46c0.16-0.12,0.33-0.18,0.52-0.19h4.41l-0.25,1.42c-0.03,0.19,0.01,0.35,0.11,0.49
	c0.11,0.13,0.25,0.2,0.44,0.21h0.97c0.19-0.01,0.36-0.08,0.52-0.21c0.15-0.13,0.25-0.3,0.29-0.49l0.56-3.22
	c0.03-0.19-0.01-0.35-0.11-0.48c-0.11-0.13-0.25-0.19-0.44-0.2H62.1c-0.19,0-0.36,0.07-0.52,0.2c-0.15,0.13-0.25,0.29-0.29,0.48
	l-0.16,1c-0.03,0.19,0.01,0.35,0.11,0.48c0.11,0.13,0.26,0.19,0.44,0.2h0.42c0.19,0,0.34,0.07,0.46,0.2
	c0.11,0.13,0.15,0.29,0.12,0.47l-2.02,11.37c-0.04,0.19-0.14,0.36-0.28,0.49c-0.15,0.14-0.32,0.21-0.51,0.21h-0.42
	c-0.19,0-0.36,0.07-0.52,0.19c-0.15,0.12-0.25,0.27-0.29,0.46l-0.19,1c-0.03,0.19,0.01,0.35,0.12,0.48
	C58.69,21.71,58.85,21.77,59.04,21.78z"/>
<path class="st1" d="M15.52,25.92c0,0.09,0,0.19,0,0.28c0,7.64,6.19,13.83,13.83,13.83c7.64,0,13.83-6.19,13.83-13.83
	c0-0.36-0.01-0.72-0.04-1.08c-3.53,3.82-8.58,6.21-14.19,6.21C23.72,31.33,18.99,29.27,15.52,25.92 M43.06,12.58l0.03,0.03
	l0.01,0.01c0.06,0.06,0.11,0.12,0.17,0.18l0.02,0.03c0.06,0.06,0.11,0.12,0.17,0.18l0.01,0.01c0.25,0.27,0.49,0.54,0.72,0.82
	l0.01,0.01c0.06,0.07,0.11,0.14,0.17,0.21l0,0c2.68,3.32,4.29,7.54,4.29,12.14c0,10.68-8.66,19.34-19.34,19.34
	C18.66,45.54,10,36.88,10,26.2c0-4.88,1.81-9.34,4.79-12.74c1,6.58,7.1,12.35,14.14,12.35c5.09,0,9.57-2.91,12.07-7.04
	c-2.45-3.85-6.76-6.4-11.66-6.4c-2.55,0-4.95,0.69-7,1.9l2.38-6.85c1.48-0.36,3.02-0.56,4.61-0.56C34.7,6.87,39.55,9.05,43.06,12.58
	L43.06,12.58z"/>
<path class="st1" d="M13.23,15.51l0.03-0.04l0.01-0.02c0.05-0.07,0.09-0.14,0.14-0.2l0.02-0.03c0.05-0.07,0.09-0.14,0.14-0.2
	l0.01-0.01c0.21-0.3,0.43-0.59,0.66-0.87l0.01-0.01c0.06-0.07,0.11-0.14,0.17-0.21l0,0c2.71-3.3,6.53-5.72,11.03-6.65
	c10.46-2.15,20.68,4.58,22.83,15.04c2.15,10.46-4.59,20.68-15.05,22.83c-4.78,0.98-9.51,0.11-13.44-2.12
	c2.03-0.75,3.87-2.01,5.38-3.61c1.32,0.41,2.72,0.64,4.17,0.64c7.65,0,13.84-6.2,13.84-13.84c0-7.65-6.2-13.84-13.84-13.84
	c-7.65,0-13.84,6.2-13.84,13.84c0,3.56,1.34,6.8,3.55,9.25l-7.17-0.95c-0.65-1.38-1.15-2.85-1.47-4.41
	C9.32,24.84,10.48,19.65,13.23,15.51L13.23,15.51z"/>
</svg>
